<svg width="119" height="127" viewBox="0 0 119 127" fill="none" xmlns="http://www.w3.org/2000/svg">
<g filter="url(#filter0_d_1_86)">
<path d="M97.8621 96.4186C96.8994 96.4186 96.1189 97.1991 96.1189 98.1618V114.551C96.1189 115.081 95.6871 115.513 95.1564 115.513H85.7859V81.1852C85.7859 80.2225 85.0054 79.442 84.0427 79.442C83.08 79.442 82.2996 80.2225 82.2996 81.1852V115.513H63.4304L68.9023 109.494C69.5001 108.836 69.782 107.899 69.6563 106.987C69.654 106.969 69.6512 106.951 69.6482 106.934L64.4366 76.1454L65.8406 74.0317C66.6169 74.583 67.2149 75.1139 68.3364 75.1139C69.4771 75.1139 70.5437 74.4754 71.0685 73.4244V73.4242L76.5653 62.4074L89.0872 67.2568C89.5402 67.4511 96.1184 70.4136 96.1184 78.236V90.0268C96.1182 90.9892 96.8987 91.7699 97.8616 91.7699C98.8243 91.7699 99.6048 90.9894 99.6048 90.0268V78.236C99.6048 67.9295 90.78 64.1831 90.4044 64.0285C90.3934 64.0239 90.3823 64.0194 90.3711 64.0153L69.5303 55.9442V51.0563C72.8405 48.482 75.1356 44.6659 75.7118 40.3122C77.3622 40.196 78.8937 39.5796 80.1443 38.5042C81.7776 37.0996 82.7147 35.0555 82.7147 32.8968C82.7147 31.1053 82.0683 29.3946 80.9164 28.0617V21.6043C80.9162 9.69176 71.2247 0 59.3121 0C47.3996 0 37.7081 9.69176 37.7081 21.6043V28.2309C36.5438 29.5503 35.9107 31.1745 35.9107 32.8965C35.9107 35.056 36.8474 37.0999 38.4811 38.5046C39.7308 39.5796 41.2613 40.1953 42.9113 40.3117C43.4921 44.747 45.8542 48.7054 49.4463 51.3143V55.9442L28.628 64.015C28.6171 64.0192 28.6062 64.0236 28.5953 64.028C28.2194 64.1826 19.3948 67.929 19.3948 78.2355V114.55C19.3948 117.004 21.3906 118.999 23.8439 118.999H40.452C41.4147 118.999 42.1952 118.219 42.1952 117.256C42.1952 116.293 41.4147 115.513 40.452 115.513H36.7014V81.1852C36.7014 80.2225 35.921 79.442 34.9583 79.442C33.9956 79.442 33.2151 80.2225 33.2151 81.1852V115.513H23.8441C23.3135 115.513 22.8816 115.082 22.8816 114.551V78.2358C22.8816 70.3871 29.504 67.4314 29.9108 67.2575L42.423 62.4069L47.9202 73.4242C48.4462 74.4777 49.5141 75.1139 50.6526 75.1139C51.7684 75.1139 52.3606 74.5912 53.1483 74.0317L54.5524 76.1454L49.3412 106.934C49.3382 106.951 49.3356 106.969 49.3331 106.986C49.2071 107.898 49.4891 108.836 50.0871 109.494L55.559 115.514H48.5875C47.6248 115.514 46.8443 116.294 46.8443 117.257C46.8443 118.22 47.6248 119 48.5875 119H95.1567C97.6099 119 99.6057 117.004 99.6057 114.551V98.162C99.6052 97.1991 98.8248 96.4186 97.8621 96.4186ZM73.3 61.143L68.1753 71.4137C68.0479 71.3233 65.3321 69.3937 62.0122 67.0363C63.4527 65.258 61.7674 67.3382 68.3422 59.223L73.3 61.143ZM62.9962 72.012L61.6673 74.0124H57.3203L55.9913 72.012L59.4939 69.5244L62.9962 72.012ZM52.9324 56.5066V53.2444C55.0502 54.0981 57.3135 54.4939 59.5239 54.4939C61.8093 54.4939 64.0505 54.0067 66.0438 53.1351V56.5208L59.4939 64.6056L52.9324 56.5066ZM79.2281 32.8968C79.2279 34.0387 78.7333 35.1192 77.871 35.8608C77.3009 36.3512 76.6122 36.6648 75.858 36.7875V29.0067C77.8615 29.3321 79.2281 30.9939 79.2281 32.8968ZM42.7672 36.7875C40.7409 36.4586 39.3971 34.7833 39.3971 32.8965C39.3971 31.033 40.942 29.5162 42.7672 29.0943V36.7875ZM42.8608 25.5422C42.3056 25.6059 41.6692 25.7563 41.1948 25.9176V21.6043C41.1948 11.6141 49.3222 3.48656 59.3124 3.48656C69.3025 3.48656 77.4299 11.6141 77.4299 21.6043V25.7979C76.9232 25.6438 76.3977 25.542 75.8582 25.4941C75.8582 23.8121 75.8729 24.1365 70.3703 18.2207C69.3583 17.1334 67.6844 16.9057 66.4105 17.738C60.3373 21.7052 52.9289 23.6982 46.0934 23.2073C44.594 23.0951 43.2283 24.0826 42.8608 25.5422ZM46.2537 38.16V27.2845V26.7115C53.7784 27.1522 61.6675 24.9168 68.0407 20.8352C70.5644 23.5448 71.931 24.9661 72.3717 25.5067C72.3717 26.8742 72.3717 36.5944 72.3717 38.1597C72.3717 45.2363 66.6016 51.0071 59.5241 51.0071C51.5767 51.0073 46.2537 44.8421 46.2537 38.16ZM50.8127 71.4137L45.688 61.143L50.637 59.2262L56.9684 67.0414C53.7486 69.3277 51.1048 71.2062 50.8127 71.4137ZM52.8127 107.31L57.8583 77.4985H61.1287L66.1744 107.31L59.4936 114.66L52.8127 107.31Z" fill="#467CCE"/>
</g>
<defs>
<filter id="filter0_d_1_86" x="-4" y="0" width="127" height="127" filterUnits="userSpaceOnUse" color-interpolation-filters="sRGB">
<feFlood flood-opacity="0" result="BackgroundImageFix"/>
<feColorMatrix in="SourceAlpha" type="matrix" values="0 0 0 0 0 0 0 0 0 0 0 0 0 0 0 0 0 0 127 0" result="hardAlpha"/>
<feOffset dy="4"/>
<feGaussianBlur stdDeviation="2"/>
<feComposite in2="hardAlpha" operator="out"/>
<feColorMatrix type="matrix" values="0 0 0 0 0 0 0 0 0 0 0 0 0 0 0 0 0 0 0.25 0"/>
<feBlend mode="normal" in2="BackgroundImageFix" result="effect1_dropShadow_1_86"/>
<feBlend mode="normal" in="SourceGraphic" in2="effect1_dropShadow_1_86" result="shape"/>
</filter>
</defs>
</svg>
