<svg width="119" height="119" viewBox="0 0 119 119" fill="none" xmlns="http://www.w3.org/2000/svg">
<g clip-path="url(#clip0_1_58)">
<path d="M50.2064 80.418C51.4901 80.418 52.5306 79.3774 52.5306 78.0938C52.5306 76.8101 51.4901 75.7695 50.2064 75.7695C48.9228 75.7695 47.8822 76.8101 47.8822 78.0938C47.8822 79.3774 48.9228 80.418 50.2064 80.418Z" fill="#467CCE"/>
<path d="M9.30017 31.6094V40.9062C9.30017 42.1899 10.3407 43.2305 11.6244 43.2305H78.7943C80.0777 43.2305 81.1185 42.1899 81.1185 40.9062V31.6094C81.1185 30.3257 80.0777 29.2852 78.7943 29.2852H11.6244C10.3407 29.2852 9.30017 30.3257 9.30017 31.6094ZM33.9369 33.9336H76.4701V38.582H33.9369V33.9336ZM13.9486 33.9336H29.2885V38.582H13.9486V33.9336Z" fill="#467CCE"/>
<path d="M11.6244 52.5273H78.7943C80.0777 52.5273 81.1185 51.4868 81.1185 50.2031C81.1185 48.9195 80.0777 47.8789 78.7943 47.8789H11.6244C10.3407 47.8789 9.30017 48.9195 9.30017 50.2031C9.30017 51.4868 10.3407 52.5273 11.6244 52.5273Z" fill="#467CCE"/>
<path d="M11.6244 61.8242H78.7943C80.0777 61.8242 81.1185 60.7837 81.1185 59.5C81.1185 58.2163 80.0777 57.1758 78.7943 57.1758H11.6244C10.3407 57.1758 9.30017 58.2163 9.30017 59.5C9.30017 60.7837 10.3407 61.8242 11.6244 61.8242Z" fill="#467CCE"/>
<path d="M11.6244 71.1211H50.2064C51.4901 71.1211 52.5306 70.0805 52.5306 68.7969C52.5306 67.5132 51.4901 66.4727 50.2064 66.4727H11.6244C10.3407 66.4727 9.30017 67.5132 9.30017 68.7969C9.30017 70.0805 10.3407 71.1211 11.6244 71.1211Z" fill="#467CCE"/>
<path d="M11.6244 80.418H40.9095C42.1932 80.418 43.2338 79.3774 43.2338 78.0938C43.2338 76.8101 42.1932 75.7695 40.9095 75.7695H11.6244C10.3407 75.7695 9.30017 76.8101 9.30017 78.0938C9.30017 79.3774 10.3407 80.418 11.6244 80.418Z" fill="#467CCE"/>
<path d="M31.6127 99.0117H43.4676C44.5474 104.31 49.2426 108.309 54.8549 108.309C61.2627 108.309 66.4759 103.095 66.4759 96.6875C66.4759 90.2796 61.2627 85.0664 54.8549 85.0664C49.2428 85.0664 44.5474 89.0652 43.4676 94.3633H31.6127C30.329 94.3633 29.2885 95.4038 29.2885 96.6875C29.2885 97.9712 30.329 99.0117 31.6127 99.0117ZM54.8549 94.3633H48.282C49.2414 91.6581 51.8248 89.7148 54.8549 89.7148C58.6996 89.7148 61.8275 92.8428 61.8275 96.6875C61.8275 100.532 58.6996 103.66 54.8549 103.66C51.825 103.66 49.2414 101.717 48.282 99.0117H54.8549C56.1383 99.0117 57.1791 97.9712 57.1791 96.6875C57.1791 95.4038 56.1385 94.3633 54.8549 94.3633Z" fill="#467CCE"/>
<path d="M78.7943 18.5938C80.0777 18.5938 81.1185 17.5532 81.1185 16.2695C81.1185 14.9859 80.0777 13.9453 78.7943 13.9453H74.1459C72.8624 13.9453 71.8217 14.9859 71.8217 16.2695C71.8217 17.5532 72.8624 18.5938 74.1459 18.5938H78.7943Z" fill="#467CCE"/>
<path d="M64.849 18.5938C66.1324 18.5938 67.1732 17.5532 67.1732 16.2695C67.1732 14.9859 66.1324 13.9453 64.849 13.9453H60.2006C58.9171 13.9453 57.8763 14.9859 57.8763 16.2695C57.8763 17.5532 58.9171 18.5938 60.2006 18.5938H64.849Z" fill="#467CCE"/>
<path d="M50.9037 18.5938C52.1874 18.5938 53.2279 17.5532 53.2279 16.2695C53.2279 14.9859 52.1874 13.9453 50.9037 13.9453H46.2552C44.9716 13.9453 43.931 14.9859 43.931 16.2695C43.931 17.5532 44.9716 18.5938 46.2552 18.5938H50.9037Z" fill="#467CCE"/>
<path d="M45.558 119C46.8416 119 47.8822 117.959 47.8822 116.676C47.8822 115.392 46.8416 114.352 45.558 114.352C44.2744 114.352 43.2338 115.392 43.2338 116.676C43.2338 117.959 44.2744 119 45.558 119Z" fill="#467CCE"/>
<path d="M2.32764 119H35.0991C36.3828 119 37.4233 117.959 37.4233 116.676C37.4233 115.392 36.3828 114.352 35.0991 114.352H4.65186V23.2422H20.9214C22.2051 23.2422 23.2456 22.2016 23.2456 20.918V4.64844H85.7671V70.3429C84.7128 71.5904 83.7283 72.6855 82.8765 73.5594L77.9491 68.6321C73.4088 64.0887 66.0554 64.0866 61.5134 68.6316L58.227 71.9181C57.3193 72.8257 57.3193 74.2974 58.227 75.205L85.7669 102.745V114.352H56.0169C54.7332 114.352 53.6926 115.392 53.6926 116.676C53.6926 117.959 54.7332 119 56.0169 119H88.0911C89.3745 119 90.4153 117.959 90.4153 116.676V107.393L91.0961 108.074C92.0037 108.981 93.4756 108.982 94.3832 108.074L97.6696 104.788C102.211 100.247 102.212 92.8944 97.6696 88.3526L92.743 83.4257C97.1518 79.1299 106.85 71.9943 111.945 69.7751C119.097 66.6618 121.678 56.9375 115.576 50.8353C109.519 44.7761 99.8384 47.2381 96.6667 54.4107C95.4772 57.0989 93.0128 60.8785 90.4155 64.4204V2.32422C90.4155 1.04055 89.3747 0 88.0913 0H20.9214C20.2876 0 19.6919 0.267285 19.2779 0.680764L0.684182 19.2745C0.26373 19.694 0.00341797 20.2872 0.00341797 20.918V116.676C0.00341797 117.959 1.04397 119 2.32764 119ZM94.3825 91.6395C97.1072 94.364 97.1077 98.7756 94.3825 101.501L92.7397 103.144L63.1576 73.5615L64.801 71.9181C67.5255 69.1922 71.9357 69.1908 74.6617 71.9185L94.3825 91.6395ZM89.913 72.6325C93.9409 67.7747 98.9059 60.8378 100.918 56.2912C102.724 52.2059 108.466 50.2977 112.289 54.122C116.113 57.9463 114.17 63.7371 110.089 65.5132C104.306 68.0322 94.24 75.4609 89.4559 80.1386L86.1636 76.8463C87.2655 75.7189 88.5529 74.2734 89.913 72.6325ZM18.5972 7.93535V18.5938H7.93877L18.5972 7.93535Z" fill="#467CCE"/>
</g>
<defs>
<clipPath id="clip0_1_58">
<rect width="119" height="119" fill="white"/>
</clipPath>
</defs>
</svg>
